<svg width="17" height="17" viewBox="0 0 17 17" fill="none" xmlns="http://www.w3.org/2000/svg">
<path d="M13.5691 6.10614H7.46299C6.71359 6.10614 6.10608 6.71365 6.10608 7.46305V13.5692C6.10608 14.3186 6.71359 14.9261 7.46299 14.9261H13.5691C14.3185 14.9261 14.926 14.3186 14.926 13.5692V7.46305C14.926 6.71365 14.3185 6.10614 13.5691 6.10614Z" stroke="#B86323" stroke-width="1.35691" stroke-linecap="round" stroke-linejoin="round"/>
<path d="M3.3923 10.1769H2.71385C2.35397 10.1769 2.00883 10.0339 1.75436 9.77943C1.49989 9.52496 1.35693 9.17982 1.35693 8.81995V2.71385C1.35693 2.35397 1.49989 2.00883 1.75436 1.75436C2.00883 1.49989 2.35397 1.35693 2.71385 1.35693H8.81995C9.17982 1.35693 9.52496 1.49989 9.77943 1.75436C10.0339 2.00883 10.1769 2.35397 10.1769 2.71385V3.3923" stroke="#B86323" stroke-width="1.35691" stroke-linecap="round" stroke-linejoin="round"/>
</svg>
