<svg width="17" height="17" viewBox="0 0 17 17" fill="none" xmlns="http://www.w3.org/2000/svg">
<path d="M7.46303 2.71387H2.71385C2.35397 2.71387 2.00883 2.85683 1.75436 3.1113C1.49989 3.36577 1.35693 3.7109 1.35693 4.07078V13.5692C1.35693 13.929 1.49989 14.2742 1.75436 14.5286C2.00883 14.7831 2.35397 14.9261 2.71385 14.9261H12.2122C12.5721 14.9261 12.9172 14.7831 13.1717 14.5286C13.4262 14.2742 13.5691 13.929 13.5691 13.5692V8.81997" stroke="white" stroke-width="1.35691" stroke-linecap="round" stroke-linejoin="round"/>
<path d="M12.5516 1.6962C12.8215 1.42629 13.1876 1.27466 13.5693 1.27466C13.951 1.27466 14.317 1.42629 14.5869 1.6962C14.8569 1.9661 15.0085 2.33217 15.0085 2.71388C15.0085 3.09559 14.8569 3.46166 14.5869 3.73156L8.14162 10.1769L5.4278 10.8553L6.10625 8.14153L12.5516 1.6962Z" stroke="white" stroke-width="1.35691" stroke-linecap="round" stroke-linejoin="round"/>
</svg>
