<svg width="17" height="17" viewBox="0 0 17 17" fill="none" xmlns="http://www.w3.org/2000/svg">
<g clip-path="url(#clip0_195_399)">
<path d="M12.2514 2.17356C12.4296 1.99537 12.6411 1.85402 12.8739 1.75758C13.1067 1.66115 13.3563 1.61151 13.6083 1.61151C13.8603 1.61151 14.1098 1.66115 14.3426 1.75758C14.5754 1.85402 14.787 1.99537 14.9652 2.17356C15.1434 2.35175 15.2847 2.5633 15.3812 2.79612C15.4776 3.02894 15.5272 3.27847 15.5272 3.53047C15.5272 3.78248 15.4776 4.03201 15.3812 4.26483C15.2847 4.49765 15.1434 4.70919 14.9652 4.88739L5.80603 14.0465L2.07452 15.0642L3.09221 11.3327L12.2514 2.17356Z" stroke="#EE7F2B" stroke-width="1.35691" stroke-linecap="round" stroke-linejoin="round"/>
</g>
<defs>
<clipPath id="clip0_195_399">
<rect width="16.2829" height="16.2829" fill="white" transform="translate(0.717529 0.138184)"/>
</clipPath>
</defs>
</svg>
