<?xml version="1.0" encoding="UTF-8"?>
<svg version="1.1" xmlns="http://www.w3.org/2000/svg" width="600" height="600">
<path d="M0 0 C0.78783875 -0.00067474 1.57567749 -0.00134949 2.38739014 -0.00204468 C13.92959368 0.01369001 24.94603937 0.41101605 36.1875 3.25 C36.87295898 3.41628906 37.55841797 3.58257812 38.26464844 3.75390625 C66.93937191 10.8405656 91.40205254 26.59527863 112.1875 47.25 C112.5175 47.91 112.8475 48.57 113.1875 49.25 C113.94289063 49.11722656 114.69828125 48.98445313 115.4765625 48.84765625 C156.45908118 42.27317726 198.46385967 49.50420111 232.77734375 73.72265625 C265.62951915 97.89192306 288.22371445 132.62249815 295.6796875 172.828125 C298.8652046 194.29360945 298.51513101 216.64088543 292.4375 237.5625 C291.29310573 241.56172728 290.58681795 244.24829488 292.1875 248.25 C293.7204345 250.16966265 295.36924918 251.95222815 297.03515625 253.7578125 C323.45251001 284.34632738 330.16476284 325.20289533 328.1875 364.25 C326.51877444 383.39014652 320.29623732 401.55479232 311.19775391 418.37695312 C310.22933785 420.17243112 309.2916563 421.98438396 308.35546875 423.796875 C290.23159966 457.52634926 257.44542093 482.08842763 221.1875 493.25 C218.86031363 493.69973233 216.52763319 494.1233938 214.1875 494.5 C210.80178359 495.26991574 209.60907406 495.6293493 207.640625 498.52734375 C206.38410331 501.46374562 206.38410331 501.46374562 205.375 504.67578125 C204.04047284 508.69253242 202.33909311 512.35229386 200.4375 516.125 C200.0981543 516.80022705 199.75880859 517.4754541 199.40917969 518.17114258 C189.25524162 537.97604457 174.96180128 555.81262823 157.1875 569.25 C156.66317383 569.65460449 156.13884766 570.05920898 155.59863281 570.47607422 C146.67498547 577.33089015 137.40420333 582.56768678 127.1875 587.25 C126.21683594 587.71019531 125.24617188 588.17039062 124.24609375 588.64453125 C117.92208066 591.47819288 111.38991238 593.49528882 104.75 595.4375 C103.9041333 595.68773926 103.0582666 595.93797852 102.18676758 596.19580078 C89.49551125 599.77895781 77.09810411 600.62658762 64 600.5625 C62.84071991 600.55976578 62.84071991 600.55976578 61.65802002 600.55697632 C50.24006993 600.51162361 39.30575568 600.05786905 28.1875 597.25 C27.50204102 597.08371094 26.81658203 596.91742187 26.11035156 596.74609375 C-2.56437191 589.6594344 -27.02705254 573.90472137 -47.8125 553.25 C-48.1425 552.59 -48.4725 551.93 -48.8125 551.25 C-49.56789062 551.38277344 -50.32328125 551.51554688 -51.1015625 551.65234375 C-92.08408118 558.22682274 -134.08885967 550.99579889 -168.40234375 526.77734375 C-201.25451915 502.60807694 -223.84871445 467.87750185 -231.3046875 427.671875 C-234.4902046 406.20639055 -234.14013101 383.85911457 -228.0625 362.9375 C-226.91810573 358.93827272 -226.21181795 356.25170512 -227.8125 352.25 C-229.36727234 350.31343445 -231.03341664 348.51191602 -232.72265625 346.69140625 C-258.96793348 316.03103565 -265.78881138 275.27831512 -263.8125 236.25 C-262.14377444 217.10985348 -255.92123732 198.94520768 -246.82275391 182.12304688 C-245.85433785 180.32756888 -244.9166563 178.51561604 -243.98046875 176.703125 C-227.88563677 146.74979559 -198.20884034 121.06272302 -165.8125 110.25 C-163.98592904 109.78155403 -162.15336125 109.33606635 -160.31640625 108.91015625 C-150.54401343 107.11226314 -150.54401343 107.11226314 -142.6484375 101.76953125 C-141.40419747 98.63353853 -140.63398764 95.52121537 -139.8125 92.25 C-138.69258044 89.55717537 -137.39147548 86.9699486 -136.0625 84.375 C-135.7224292 83.69953125 -135.3823584 83.0240625 -135.03198242 82.328125 C-124.89812481 62.52801728 -110.58482559 44.66798749 -92.8125 31.25 C-92.28285645 30.84539551 -91.75321289 30.44079102 -91.20751953 30.02392578 C-64.65172159 9.85702638 -33.25565371 0.0254347 0 0 Z M-71.8125 66.25 C-72.54210937 66.82492188 -73.27171875 67.39984375 -74.0234375 67.9921875 C-79.76241543 72.73308231 -84.28878922 78.36589794 -88.8125 84.25 C-89.72515625 85.42175781 -89.72515625 85.42175781 -90.65625 86.6171875 C-105.08535997 106.09648596 -111.0013505 128.6267421 -111.27758789 152.58447266 C-111.30163181 154.09857616 -111.32628189 155.61267013 -111.35148621 157.12675476 C-111.56748361 170.85505533 -111.67273397 184.58591704 -111.75394535 198.31560707 C-111.81486331 208.44774307 -111.92553668 218.57672139 -112.10193068 228.70752108 C-112.22214727 235.85513227 -112.28472653 243.0018845 -112.30516809 250.15046918 C-112.31895765 254.4117059 -112.35797343 258.66915583 -112.45958138 262.92927933 C-113.65809099 279.31355026 -113.65809099 279.31355026 -109.37682724 294.50889397 C-105.97816568 297.82077976 -102.27430744 299.39615682 -97.75097466 300.63628578 C-94.48737165 301.66953095 -91.8082582 303.46957022 -88.90625 305.26953125 C-86.70911659 306.53521482 -84.5112071 307.79955217 -82.3125 309.0625 C-80.641875 310.02446289 -80.641875 310.02446289 -78.9375 311.00585938 C-76.8188019 312.22537191 -74.69908176 313.44311134 -72.578125 314.65869141 C-70.89615183 315.62647929 -69.21797101 316.60095149 -67.546875 317.58740234 C-64.39405219 319.5976787 -64.39405219 319.5976787 -60.8125 320.25 C-60.81011165 319.38123985 -60.80772329 318.51247971 -60.80526257 317.61739349 C-60.74609815 296.46776793 -60.67053875 275.31825617 -60.57678509 254.16875458 C-60.53184067 243.94096406 -60.49242284 233.71320826 -60.46606445 223.48535156 C-60.44307345 214.56960541 -60.40966302 205.65396924 -60.36379844 196.73831034 C-60.33988116 192.01857279 -60.32114256 187.29894408 -60.31488609 182.57914734 C-60.30882851 178.13367332 -60.28880426 173.68847771 -60.25822449 169.24310684 C-60.24945507 167.61457885 -60.24571941 165.98601447 -60.24749184 164.35746384 C-60.26068936 146.63061839 -60.26068936 146.63061839 -55.17382812 140.16821289 C-49.60435486 135.57874699 -43.65977734 132.09909348 -37.3125 128.6875 C-35.07058453 127.45760493 -32.82972438 126.22578453 -30.58984375 124.9921875 C-29.45788574 124.37053711 -28.32592773 123.74888672 -27.15966797 123.10839844 C-22.01893976 120.25418815 -16.94500143 117.29003953 -11.875 114.3125 C-9.88423184 113.14563326 -7.89334539 111.97896832 -5.90234375 110.8125 C-4.9057373 110.22855469 -3.90913086 109.64460938 -2.88232422 109.04296875 C2.42077256 105.94562958 7.74145514 102.87887158 13.0625 99.8125 C14.13757813 99.19286377 15.21265625 98.57322754 16.3203125 97.93481445 C18.50494958 96.67594017 20.6896831 95.41723324 22.87451172 94.15869141 C28.45921084 90.94121331 34.04215015 87.7206855 39.625 84.5 C40.6965332 83.88189453 41.76806641 83.26378906 42.87207031 82.62695312 C52.316356 77.17799198 61.75368533 71.71706609 71.1875 66.25 C69.86388788 62.27916365 67.39556095 61.11307466 64 59 C63.3714209 58.60522461 62.7428418 58.21044922 62.09521484 57.80371094 C19.17598466 31.28816559 -32.53576676 34.6701482 -71.8125 66.25 Z M64.76953125 115.40625 C57.93900778 119.40741065 51.06631782 123.3328085 44.1875 127.25 C34.52171603 132.75661384 24.89196422 138.32100633 15.29418945 143.94555664 C9.83267528 147.14057655 4.35509943 150.30479588 -1.14453125 153.43359375 C-1.76762177 153.78829742 -2.39071228 154.1430011 -3.03268433 154.50845337 C-6.05662442 156.22909013 -9.08245368 157.94626799 -12.11132812 159.65820312 C-13.21541016 160.28533203 -14.31949219 160.91246094 -15.45703125 161.55859375 C-16.41971924 162.10314209 -17.38240723 162.64769043 -18.37426758 163.20874023 C-19.50888428 163.88235596 -20.64350098 164.55597168 -21.8125 165.25 C-23.20187019 165.90267097 -23.20187019 165.90267097 -24.61930847 166.56852722 C-30.53840234 169.5898293 -30.53840234 169.5898293 -33.7709198 175.11274719 C-34.08768214 178.66498327 -34.0508196 182.05851159 -33.88671875 185.62109375 C-33.87115433 186.89855972 -33.8555899 188.1760257 -33.83955383 189.49220276 C-33.78853349 192.87077275 -33.69001708 196.24099173 -33.56781006 199.61724854 C-33.45475057 203.06897198 -33.4049343 206.52156345 -33.34960938 209.97460938 C-33.22853064 216.73536115 -33.04463984 223.49219911 -32.8125 230.25 C-30.92630732 229.31691809 -29.04128366 228.38147286 -27.15673828 227.44506836 C-26.10688751 226.92440292 -25.05703674 226.40373749 -23.97537231 225.86729431 C-19.09840251 223.37351817 -14.39772083 220.60509721 -9.6875 217.8125 C-7.57847714 216.57231764 -5.46908939 215.33275562 -3.359375 214.09375 C-2.28107422 213.45953125 -1.20277344 212.8253125 -0.09179688 212.171875 C5.27744733 209.02515892 10.66958191 205.91841381 16.0625 202.8125 C17.14160645 202.19060791 18.22071289 201.56871582 19.33251953 200.92797852 C21.52332951 199.66550269 23.7142476 198.40321444 25.90527344 197.14111328 C31.33409942 194.01319852 36.76069281 190.88141552 42.1875 187.75 C44.35415583 186.49998121 46.5208225 185.24998122 48.6875 184 C49.76 183.38125 50.8325 182.7625 51.9375 182.125 C56.8125 179.3125 56.8125 179.3125 61.6875 176.5 C62.76136963 175.88044434 63.83523926 175.26088867 64.94165039 174.62255859 C67.09442816 173.38060256 69.24725963 172.1387396 71.40014648 170.89697266 C76.43366915 167.99353087 81.46668048 165.089215 86.49771118 162.18145752 C88.27112608 161.15654597 90.04471646 160.13193877 91.81835938 159.10742188 C94.03745773 157.82547262 96.25623016 156.54295893 98.47460938 155.25976562 C101.37574309 153.58425445 104.28027878 151.91492276 107.1875 150.25 C108.05165527 149.75330811 108.91581055 149.25661621 109.80615234 148.74487305 C110.99845459 148.06871948 110.99845459 148.06871948 112.21484375 147.37890625 C112.9018335 146.98775635 113.58882324 146.59660645 114.29663086 146.19360352 C120.28327446 143.20607898 126.10066807 144.2786106 132.1875 146.25 C135.97797666 148.08017197 139.53694634 150.24128655 143.125 152.4375 C145.26119821 153.7144129 147.3979356 154.99042414 149.53515625 156.265625 C150.63230957 156.92498047 151.72946289 157.58433594 152.85986328 158.26367188 C158.22536202 161.46643767 163.64413166 164.57530855 169.0625 167.6875 C171.24753578 168.94637171 173.43243094 170.20548753 175.6171875 171.46484375 C176.70225586 172.08987793 177.78732422 172.71491211 178.90527344 173.35888672 C184.33409941 176.48680148 189.76069975 179.61857247 195.1875 182.75 C201.76922877 186.54739963 208.35114072 190.34448093 214.93359375 194.140625 C216.04404053 194.78128906 217.1544873 195.42195313 218.29858398 196.08203125 C220.49135536 197.34635506 222.68486109 198.60940621 224.87915039 199.87109375 C229.91903896 202.77157107 234.94479665 205.69079484 239.9375 208.671875 C240.81865479 209.19426758 241.69980957 209.71666016 242.60766602 210.25488281 C244.24084945 211.22487751 245.8692788 212.20293914 247.49194336 213.19042969 C249.34668417 214.28788961 251.26290109 215.28025735 253.1875 216.25 C254.1775 215.92 255.1675 215.59 256.1875 215.25 C259.89476292 185.92290223 253.2558145 156.87837872 235.75 132.9375 C216.53210115 108.43959822 192.72475552 93.38754767 162.046875 87.6640625 C123.80239529 83.56090982 96.83618406 96.58812925 64.76953125 115.40625 Z M-187.8125 170.25 C-188.62847656 170.96542969 -189.44445312 171.68085938 -190.28515625 172.41796875 C-210.47233875 191.39463237 -222.85217716 219.35165825 -224.1328125 246.89453125 C-224.65967144 265.77287987 -221.87260497 283.11993932 -213.8125 300.25 C-213.3796167 301.17522461 -213.3796167 301.17522461 -212.93798828 302.11914062 C-199.25743978 330.85643126 -175.8940344 346.77042237 -148.71533203 361.64550781 C-144.89350609 363.75795862 -141.12709261 365.95414502 -137.375 368.1875 C-130.40535099 372.32409109 -123.39747533 376.39121906 -116.375 380.4375 C-114.71416382 381.39450806 -114.71416382 381.39450806 -113.01977539 382.37084961 C-110.74912932 383.67889477 -108.47837642 384.98675448 -106.20751953 386.29443359 C-101.81628675 388.82382915 -97.42677703 391.35620344 -93.03759766 393.88916016 C-90.89564827 395.12503739 -88.75339784 396.36039302 -86.61083984 397.59521484 C-81.53559512 400.52078099 -76.46300806 403.450696 -71.3991394 406.39590454 C-69.00934332 407.7854863 -66.61813164 409.17262172 -64.22680664 410.55957031 C-62.54109411 411.53863253 -60.85743413 412.52122606 -59.17382812 413.50390625 C-57.63952148 414.39335938 -57.63952148 414.39335938 -56.07421875 415.30078125 C-54.72783325 416.08449097 -54.72783325 416.08449097 -53.35424805 416.8840332 C-52.51547119 417.33480225 -51.67669434 417.78557129 -50.8125 418.25 C-49.99040039 418.69504883 -49.16830078 419.14009766 -48.32128906 419.59863281 C-45.77168582 420.51316781 -45.77168582 420.51316781 -43.20727539 419.30639648 C-42.28422607 418.75024658 -41.36117676 418.19409668 -40.41015625 417.62109375 C-39.364646 417.00387451 -38.31913574 416.38665527 -37.24194336 415.75073242 C-36.13085205 415.06986572 -35.01976074 414.38899902 -33.875 413.6875 C-32.72177166 412.99745236 -31.56754398 412.3090723 -30.41235352 411.62231445 C-28.0432432 410.21078919 -25.68029567 408.78967013 -23.32128906 407.36132812 C-19.98271701 405.34467289 -16.61666667 403.37794639 -13.2421875 401.421875 C-11.24471914 400.2605414 -9.24731981 399.09908906 -7.25 397.9375 C-5.8414978 397.12140259 -5.8414978 397.12140259 -4.40454102 396.28881836 C-3.54787842 395.78487549 -2.69121582 395.28093262 -1.80859375 394.76171875 C-1.05763428 394.32303467 -0.3066748 393.88435059 0.46704102 393.43237305 C2.33904023 392.35011869 2.33904023 392.35011869 3.1875 390.25 C2.46498047 389.83862793 1.74246094 389.42725586 0.99804688 389.00341797 C-12.66288142 381.22152151 -26.30286317 373.40857684 -39.87353516 365.4699707 C-50.39945224 359.31463149 -60.96434167 353.22742889 -71.53027344 347.14111328 C-78.0360961 343.3926677 -84.53894083 339.63905819 -91.04223633 335.88623047 C-97.70120425 332.04391904 -104.36223552 328.20521421 -111.0246582 324.36889648 C-114.29455657 322.48387382 -117.56156339 320.59392255 -120.828125 318.703125 C-124.55596498 316.54615075 -128.29380361 314.40960785 -132.046875 312.296875 C-133.57295033 311.42714239 -135.09899455 310.5573552 -136.625 309.6875 C-137.294104 309.31842529 -137.96320801 308.94935059 -138.65258789 308.5690918 C-144.15871013 305.40452958 -147.88210232 302.02600486 -149.92855835 295.92004395 C-151.33894189 289.79687029 -151.12095352 283.55722317 -151.13134766 277.30664062 C-151.14065906 275.90645782 -151.15082952 274.5062805 -151.16178894 273.10610962 C-151.18896652 269.32572377 -151.20420179 265.54537494 -151.21721697 261.76491737 C-151.2329014 257.80641079 -151.25967455 253.84797919 -151.2852478 249.88952637 C-151.33194188 242.40288563 -151.36873119 234.91623064 -151.40192068 227.42951918 C-151.44020847 218.90224267 -151.4896011 210.37504164 -151.53990483 201.84782887 C-151.64308522 184.31527393 -151.73239058 166.78267522 -151.8125 149.25 C-164.20779729 149.25 -178.87069452 162.40121106 -187.8125 170.25 Z M105.078125 183.07421875 C104.02294678 183.68499268 102.96776855 184.2957666 101.88061523 184.92504883 C100.74438721 185.58915771 99.60815918 186.2532666 98.4375 186.9375 C97.26974415 187.61700667 96.10185558 188.2962853 94.93383789 188.9753418 C92.53572106 190.3709454 90.13949999 191.76973286 87.74462891 193.17089844 C84.36949922 195.14530166 80.98758273 197.10789567 77.60546875 199.0703125 C75.6115979 200.23372183 73.61808962 201.39775283 71.625 202.5625 C70.68624023 203.10672607 69.74748047 203.65095215 68.78027344 204.21166992 C67.92336914 204.71545166 67.06646484 205.2192334 66.18359375 205.73828125 C65.43263428 206.17696533 64.6816748 206.61564941 63.90795898 207.06762695 C62.03595977 208.14988131 62.03595977 208.14988131 61.1875 210.25 C61.8995459 210.65613525 62.6115918 211.06227051 63.34521484 211.48071289 C79.57511908 220.74029763 95.78230146 230.03775023 111.9609375 239.38671875 C115.22274007 241.2703505 118.48611844 243.15122321 121.75 245.03125 C133.18385142 251.61854917 144.59898557 258.23579677 155.98852539 264.89941406 C163.27239551 269.15268142 170.58971686 273.34459838 177.91897583 277.51889038 C181.9950885 279.84210952 186.06641243 282.17370172 190.13769531 284.50537109 C192.0234225 285.58409399 193.91051914 286.66043161 195.79980469 287.73291016 C197.91492395 288.93575611 200.02134257 290.15225756 202.125 291.375 C203.20652344 291.99632812 204.28804687 292.61765625 205.40234375 293.2578125 C210.50638507 296.90866955 213.3882552 300.5754951 214.80035019 306.72727966 C215.63675115 312.17738101 215.4971988 317.69163497 215.50634766 323.19335938 C215.51565906 324.59354218 215.52582952 325.9937195 215.53678894 327.39389038 C215.56396652 331.17427623 215.57920179 334.95462506 215.59221697 338.73508263 C215.6079014 342.69358921 215.63467455 346.65202081 215.6602478 350.61047363 C215.70694188 358.09711437 215.74373119 365.58376936 215.77692068 373.07048082 C215.81520847 381.59775733 215.8646011 390.12495836 215.91490483 398.65217113 C216.01808522 416.18472607 216.10739058 433.71732478 216.1875 451.25 C229.79929642 448.66482907 241.9652672 439.20585113 252.1875 430.25 C253.00605469 429.53328125 253.82460938 428.8165625 254.66796875 428.078125 C274.58491154 409.32447267 287.29339386 381.60722057 288.5078125 354.37890625 C289.38242697 321.65564968 279.31483856 293.71416273 257.59765625 269.34375 C246.15315548 257.37828077 232.65962365 249.62592733 218.30859375 241.6640625 C212.28053214 238.31844512 206.3218595 234.86245873 200.375 231.375 C192.03646119 226.49342382 183.68385043 221.63761417 175.3125 216.8125 C174.23395752 216.19076904 173.15541504 215.56903809 172.04418945 214.9284668 C168.75889224 213.03518248 165.47326011 211.14248083 162.1875 209.25 C157.8120717 206.7299091 153.43712689 204.20898179 149.0625 201.6875 C148.00240723 201.07712891 146.94231445 200.46675781 145.85009766 199.83789062 C140.31565101 196.6473754 134.79356095 193.43721643 129.2890625 190.1953125 C128.18062988 189.54377197 127.07219727 188.89223145 125.93017578 188.22094727 C123.80912506 186.9726222 121.69021524 185.72065051 119.57373047 184.46459961 C118.63158691 183.9103833 117.68944336 183.35616699 116.71875 182.78515625 C115.47448242 182.04857788 115.47448242 182.04857788 114.20507812 181.29711914 C110.38566197 179.31484955 108.58788156 181.03408991 105.078125 183.07421875 Z M23.0625 230.3125 C21.53607964 231.23460319 20.00866929 232.15506885 18.48046875 233.07421875 C17.6404834 233.58130371 16.80049805 234.08838867 15.93505859 234.61083984 C9.78299033 238.2810892 3.54731361 241.80996054 -2.67041016 245.36743164 C-4.80461607 246.59391912 -6.91590743 247.86086979 -9.0065918 249.16015625 C-11.91636062 250.8859715 -14.82347184 251.9883818 -18.01879883 253.08984375 C-24.00612206 255.43186194 -29.05196549 257.86852094 -32.8125 263.25 C-36.28549688 274.35948231 -35.35279535 286.42008695 -34.94354248 297.91125488 C-34.85208027 301.36564343 -34.88350027 304.8143932 -34.91645145 308.26948929 C-34.93630163 311.61327769 -34.89081493 314.95367756 -34.82467461 318.29677582 C-34.79856771 319.8864753 -34.78945641 321.47655513 -34.79829597 323.0664444 C-34.79842532 328.10331376 -34.5493196 332.48979617 -32.8125 337.25 C-28.86895329 341.01602537 -24.80708684 343.03146497 -19.8125 345.25 C-18.56864589 345.95357425 -17.33269892 346.67194591 -16.11547852 347.4206543 C-15.15053467 347.96633057 -14.18559082 348.51200684 -13.19140625 349.07421875 C-12.081604 349.70465088 -10.97180176 350.33508301 -9.82836914 350.98461914 C-8.68875732 351.62906982 -7.54914551 352.27352051 -6.375 352.9375 C0.70915955 356.94522914 7.77349213 360.96495623 14.71875 365.2109375 C15.7197876 365.81977783 16.7208252 366.42861816 17.75219727 367.0559082 C19.62486699 368.20096291 21.49037838 369.3578335 23.34741211 370.52807617 C24.18022705 371.0357251 25.01304199 371.54337402 25.87109375 372.06640625 C26.58837646 372.51443604 27.30565918 372.96246582 28.04467773 373.42407227 C30.88485326 374.51878729 32.30169273 374.16350481 35.1875 373.25 C37.00702641 372.37981406 38.79235887 371.43617912 40.546875 370.44140625 C41.57143799 369.86438965 42.59600098 369.28737305 43.65161133 368.69287109 C44.73595459 368.07234863 45.82029785 367.45182617 46.9375 366.8125 C48.05987061 366.17650879 49.18224121 365.54051758 50.33862305 364.88525391 C55.20833672 362.11841079 60.06464566 359.32853838 64.91015625 356.51953125 C65.55432999 356.14619156 66.19850372 355.77285187 66.86219788 355.38819885 C68.19536512 354.60044805 69.51859601 353.79531619 70.82539368 352.96455383 C74.56188506 350.61674568 78.10144847 348.86566996 82.28955078 347.45849609 C88.32223911 345.15123392 93.35254462 342.59749633 97.1875 337.25 C100.70716429 326.16984246 99.72716689 314.0622669 99.31854248 302.58874512 C99.22708027 299.13435657 99.25850027 295.6856068 99.29145145 292.23051071 C99.31130163 288.88672231 99.26581493 285.54632244 99.19967461 282.20322418 C99.17356771 280.6135247 99.16445641 279.02344487 99.17329597 277.4335556 C99.17342532 272.39668624 98.9243196 268.01020383 97.1875 263.25 C93.24395329 259.48397463 89.18208684 257.46853503 84.1875 255.25 C82.94364589 254.54642575 81.70769892 253.82805409 80.49047852 253.0793457 C79.52553467 252.53366943 78.56059082 251.98799316 77.56640625 251.42578125 C76.45652344 250.79542969 75.34664063 250.16507813 74.203125 249.515625 C73.06359375 248.87109375 71.9240625 248.2265625 70.75 247.5625 C63.6664484 243.54893402 56.5975275 239.52241726 49.62109375 235.32421875 C48.61554443 234.71989014 47.60999512 234.11556152 46.57397461 233.49291992 C44.6912947 232.35611438 42.81296236 231.21206805 40.93969727 230.05981445 C40.10365967 229.55538818 39.26762207 229.05096191 38.40625 228.53125 C37.68373047 228.08845703 36.96121094 227.64566406 36.21679688 227.18945312 C30.98459476 224.76723058 27.42121705 227.61417249 23.0625 230.3125 Z M125.1875 280.25 C125.18391747 281.55314022 125.18391747 281.55314022 125.18026257 282.88260651 C125.12109815 304.03223207 125.04553875 325.18174383 124.95178509 346.33124542 C124.90684067 356.55903594 124.86742284 366.78679174 124.84106445 377.01464844 C124.81807345 385.93039459 124.78466302 394.84603076 124.73879844 403.76168966 C124.71488116 408.48142721 124.69614256 413.20105592 124.68988609 417.92085266 C124.68382851 422.36632668 124.66380426 426.81152229 124.63322449 431.25689316 C124.62445507 432.88542115 124.62071941 434.51398553 124.62249184 436.14253616 C124.63568936 453.86938161 124.63568936 453.86938161 119.54882812 460.33178711 C113.97935486 464.92125301 108.03477734 468.40090652 101.6875 471.8125 C99.44558453 473.04239507 97.20472438 474.27421547 94.96484375 475.5078125 C93.83288574 476.12946289 92.70092773 476.75111328 91.53466797 477.39160156 C86.39393976 480.24581185 81.32000143 483.20996047 76.25 486.1875 C74.25923184 487.35436674 72.26834539 488.52103168 70.27734375 489.6875 C69.2807373 490.27144531 68.28413086 490.85539063 67.25732422 491.45703125 C61.95422744 494.55437042 56.63354486 497.62112842 51.3125 500.6875 C50.23742187 501.30713623 49.16234375 501.92677246 48.0546875 502.56518555 C45.87005042 503.82405983 43.6853169 505.08276676 41.50048828 506.34130859 C35.91578916 509.55878669 30.33284985 512.7793145 24.75 516 C23.6784668 516.61810547 22.60693359 517.23621094 21.50292969 517.87304688 C12.058644 523.32200802 2.62131467 528.78293391 -6.8125 534.25 C-5.48888788 538.22083635 -3.02056095 539.38692534 0.375 541.5 C1.0035791 541.89477539 1.6321582 542.28955078 2.27978516 542.69628906 C28.58864903 558.94993271 59.24256561 565.20711358 89.73510742 558.08862305 C118.59731854 550.60793808 144.8698016 532.04655558 160.1875 506.25 C168.82507808 490.91544508 175.1140479 473.49740391 175.40869141 455.74259949 C175.43174347 454.45157822 175.45479553 453.16055695 175.47854614 451.83041382 C175.49892636 450.41192924 175.51909129 448.99344156 175.5390625 447.57495117 C175.56335476 446.07144361 175.58784518 444.56793923 175.61251831 443.06443787 C175.82846656 429.37257796 175.95020075 415.67936753 176.04681396 401.98620129 C176.11316879 392.78811789 176.20797989 383.59213661 176.37402344 374.39526367 C176.5191175 366.35807052 176.61125958 358.32233523 176.63949776 350.28384954 C176.65615093 346.03365125 176.69849265 341.78734944 176.80401611 337.53835106 C178.01906476 321.17280103 178.01906476 321.17280103 173.75337219 305.99250603 C170.3547245 302.6810641 166.64915959 301.10580135 162.12654114 299.86440659 C158.86299725 298.83031668 156.18348766 297.03049642 153.28125 295.23046875 C151.08411659 293.96478518 148.8862071 292.70044783 146.6875 291.4375 C145.57375 290.79619141 144.46 290.15488281 143.3125 289.49414062 C141.1938019 288.27462809 139.07408176 287.05688866 136.953125 285.84130859 C135.27115183 284.87352071 133.59297101 283.89904851 131.921875 282.91259766 C128.76905219 280.9023213 128.76905219 280.9023213 125.1875 280.25 Z M91.21875 372.9609375 C90.18177979 373.54093506 89.14480957 374.12093262 88.07641602 374.71850586 C86.95807373 375.34764893 85.83973145 375.97679199 84.6875 376.625 C83.54273193 377.26767822 82.39796387 377.91035645 81.21850586 378.57250977 C74.36136906 382.4328131 67.54097754 386.3455752 60.77319336 390.36010742 C54.46079653 394.10253734 48.10839984 397.7738528 41.75 401.4375 C40.64277588 402.07550537 39.53555176 402.71351074 38.39477539 403.37084961 C36.12412932 404.67889477 33.85337642 405.98675448 31.58251953 407.29443359 C26.1158002 410.44332054 20.65175113 413.59683264 15.1875 416.75 C13.02084689 418.0000235 10.85418021 419.25002347 8.6875 420.5 C7.615 421.11875 6.5425 421.7375 5.4375 422.375 C2.1875 424.25 -1.0625 426.125 -4.3125 428 C-5.38693359 428.61987793 -6.46136719 429.23975586 -7.56835938 429.87841797 C-9.71545136 431.11710002 -11.86258614 432.3557079 -14.00976562 433.59423828 C-19.10838809 436.5353335 -24.20655296 439.47721413 -29.30322266 442.42169189 C-31.72297665 443.81958601 -34.14297263 445.21706089 -36.56298828 446.61450195 C-38.28051052 447.60652324 -39.99768052 448.59915429 -41.71484375 449.59179688 C-43.26365234 450.48608398 -43.26365234 450.48608398 -44.84375 451.3984375 C-46.21370117 452.19000244 -46.21370117 452.19000244 -47.61132812 452.99755859 C-53.15915572 456.1542085 -58.55435809 456.7511131 -64.8125 455.25 C-72.55942603 452.13564989 -79.6648309 447.51840434 -86.8125 443.25 C-88.7572414 442.11786991 -90.70385586 440.9889511 -92.65234375 439.86328125 C-96.64893785 437.55037141 -100.63654626 435.22307083 -104.6171875 432.8828125 C-110.95505504 429.15974274 -117.3183591 425.48175166 -123.6875 421.8125 C-124.76596191 421.19084961 -125.84442383 420.56919922 -126.95556641 419.92871094 C-130.24091511 418.03529329 -133.52664353 416.14253632 -136.8125 414.25 C-141.18792829 411.72990911 -145.56299305 409.2091899 -149.9375 406.6875 C-150.99904297 406.07567871 -152.06058594 405.46385742 -153.15429688 404.83349609 C-161.8730526 399.80334254 -170.56874311 394.73414192 -179.25048828 389.64038086 C-180.18618652 389.09260986 -181.12188477 388.54483887 -182.0859375 387.98046875 C-182.90497559 387.49989014 -183.72401367 387.01931152 -184.56787109 386.52416992 C-186.61986732 385.35934848 -188.69120875 384.28208627 -190.8125 383.25 C-198.06031227 397.74562454 -191.88903673 422.84203197 -187.125 437.5 C-177.49258431 465.45009495 -157.07826916 488.74703413 -130.8125 502.25 C-103.87638118 515.18518817 -72.27538553 517.59903363 -43.9140625 507.96484375 C-29.71984627 502.62341437 -16.61992368 494.82929322 -3.625 487.09765625 C2.09466261 483.70008926 7.86016081 480.38264483 13.625 477.0625 C14.73157959 476.42489746 15.83815918 475.78729492 16.97827148 475.13037109 C19.2495547 473.82189492 21.5209587 472.51362839 23.79248047 471.20556641 C29.25919974 468.0566795 34.72328353 464.90322732 40.1875 461.75 C46.7915812 457.93899262 53.39634972 454.12919814 60.00390625 450.32421875 C69.76761894 444.70024164 79.53053524 439.07522407 89.25 433.375 C89.95261963 432.96403076 90.65523926 432.55306152 91.37915039 432.12963867 C94.45992011 430.43007118 94.45992011 430.43007118 97.1875 428.25 C97.28126053 426.43944975 97.3049411 424.62522799 97.30102539 422.81225586 C97.30091209 421.07056374 97.30091209 421.07056374 97.30079651 419.29368591 C97.29305458 417.39840904 97.29305458 417.39840904 97.28515625 415.46484375 C97.2837413 414.17888809 97.28232635 412.89293243 97.28086853 411.56800842 C97.27704418 408.14356557 97.26721462 404.71916491 97.25616455 401.29473877 C97.24594864 397.80261811 97.24137053 394.31049066 97.23632812 390.81835938 C97.22559227 383.96222222 97.20851684 377.10611313 97.1875 370.25 C95.10171108 370.25 92.96501629 371.98325736 91.21875 372.9609375 Z " fill="#FFFFFF" transform="translate(267.8125,-0.25)"/>
</svg>
