<svg width="17" height="17" viewBox="0 0 17 17" fill="none" xmlns="http://www.w3.org/2000/svg">
<path d="M2.03528 4.07074H3.39219H14.2475" stroke="#FF0000" stroke-width="1.35691" stroke-linecap="round" stroke-linejoin="round"/>
<path d="M12.8906 4.07076V13.5691C12.8906 13.929 12.7476 14.2741 12.4932 14.5286C12.2387 14.7831 11.8936 14.926 11.5337 14.926H4.74912C4.38925 14.926 4.04411 14.7831 3.78964 14.5286C3.53517 14.2741 3.39221 13.929 3.39221 13.5691V4.07076M5.42758 4.07076V2.71385C5.42758 2.35397 5.57054 2.00883 5.82501 1.75436C6.07948 1.49989 6.42462 1.35693 6.78449 1.35693H9.49831C9.85819 1.35693 10.2033 1.49989 10.4578 1.75436C10.7123 2.00883 10.8552 2.35397 10.8552 2.71385V4.07076" stroke="#FF0000" stroke-width="1.35691" stroke-linecap="round" stroke-linejoin="round"/>
</svg>
